<svg width="60" height="60" viewBox="0 0 60 60" fill="none" xmlns="http://www.w3.org/2000/svg">
<g clip-path="url(#clip0_330_57)">
<mask id="path-1-outside-1_330_57" maskUnits="userSpaceOnUse" x="1.87671" y="4.50012" width="59" height="52" fill="black">
<rect fill="white" x="1.87671" y="4.50012" width="59" height="52"/>
<path fill-rule="evenodd" clip-rule="evenodd" d="M48.5429 21.2532C47.9901 19.0938 47.1836 17.5437 46.1428 16.4336C46.1519 16.4062 46.1607 16.3788 46.1694 16.3512C47.2302 12.985 45.4372 9.21499 42.1647 7.93053C38.8921 6.64608 35.3791 8.33361 34.3183 11.6997C34.1088 12.3645 34.0106 13.0449 34.0131 13.7189L33.7238 13.7235H33.7238C32.7317 13.7395 31.6993 13.7562 30.6286 13.7562C29.7406 13.7562 28.8891 13.7676 28.0735 13.796C28.0214 13.4352 27.9401 13.0752 27.8279 12.7193C26.7572 9.3217 23.2838 7.59 20.0698 8.85143C16.8559 10.1129 15.1185 13.8897 16.1892 17.2873C16.2685 17.5387 16.3608 17.781 16.4653 18.0137C15.3336 19.4265 14.4636 21.2931 13.8339 23.7525C13.6852 25.246 13.6889 26.4751 13.8289 27.4836C6.25474 28.985 5.69178 33.4859 4.98078 39.1702C4.94669 39.4428 4.91226 39.718 4.87671 39.9958C5.99636 48.7423 10.475 52.4908 29.509 53.7403C44.0643 52.4909 56.3804 51.2414 57.5001 34.9977C57.5001 30.6483 55.0474 25.6246 48.4132 24.2589C48.5176 23.3021 48.5429 22.2925 48.5429 21.2532Z"/>
</mask>
<path d="M46.1428 16.4336L43.7686 15.6506L43.3037 17.0605L44.3191 18.1435L46.1428 16.4336ZM48.5429 21.2532H51.0429V20.9383L50.9648 20.6331L48.5429 21.2532ZM46.1694 16.3512L48.5538 17.1027L48.5538 17.1026L46.1694 16.3512ZM34.3183 11.6997L31.9339 10.9483V10.9483L34.3183 11.6997ZM34.0131 13.7189L34.0533 16.2186L36.5223 16.1789L36.5131 13.7096L34.0131 13.7189ZM33.7238 13.7235V16.2235H33.7439L33.764 16.2232L33.7238 13.7235ZM33.7238 13.7235V11.2235H33.7036L33.6835 11.2239L33.7238 13.7235ZM28.0735 13.796L25.5991 14.1531L25.9193 16.3725L28.1605 16.2945L28.0735 13.796ZM27.8279 12.7193L30.2123 11.9679V11.9679L27.8279 12.7193ZM20.0698 8.85143L19.1564 6.52426V6.52426L20.0698 8.85143ZM16.1892 17.2873L13.8048 18.0388V18.0388L16.1892 17.2873ZM16.4653 18.0137L18.4165 19.5766L19.372 18.3838L18.7459 16.9895L16.4653 18.0137ZM13.8339 23.7525L11.412 23.1324L11.365 23.3161L11.3462 23.5048L13.8339 23.7525ZM13.8289 27.4836L14.315 29.9359L16.6294 29.4771L16.3051 27.14L13.8289 27.4836ZM4.98078 39.1702L7.46145 39.4805L7.46145 39.4805L4.98078 39.1702ZM4.87671 39.9958L2.39694 39.6783L2.35631 39.9958L2.39694 40.3132L4.87671 39.9958ZM29.509 53.7403L29.3452 56.2349L29.5341 56.2473L29.7228 56.2311L29.509 53.7403ZM57.5001 34.9977L59.9942 35.1697L60.0001 35.0838V34.9977H57.5001ZM48.4132 24.2589L45.928 23.9879L45.6814 26.249L47.9092 26.7076L48.4132 24.2589ZM44.3191 18.1435C44.994 18.8634 45.6402 19.995 46.1211 21.8733L50.9648 20.6331C50.34 18.1925 49.3732 16.2239 47.9666 14.7237L44.3191 18.1435ZM43.7851 15.5996C43.7796 15.617 43.7741 15.634 43.7686 15.6506L48.5171 17.2166C48.5296 17.1785 48.5419 17.1405 48.5538 17.1027L43.7851 15.5996ZM41.2513 10.2577C43.2929 11.059 44.4534 13.479 43.785 15.5997L48.5538 17.1026C50.0071 12.491 47.5816 7.37094 43.078 5.60336L41.2513 10.2577ZM36.7027 12.4512C37.3313 10.4567 39.3363 9.5061 41.2513 10.2577L43.078 5.60336C38.4478 3.78606 33.427 6.21057 31.9339 10.9483L36.7027 12.4512ZM36.5131 13.7096C36.5115 13.2853 36.5733 12.8619 36.7027 12.4512L31.9339 10.9483C31.6444 11.867 31.5097 12.8046 31.5132 13.7282L36.5131 13.7096ZM33.764 16.2232L34.0533 16.2186L33.973 11.2192L33.6836 11.2239L33.764 16.2232ZM33.7238 16.2235H33.7238V11.2235H33.7238V16.2235ZM30.6286 16.2562C31.7226 16.2562 32.7746 16.2392 33.7641 16.2232L33.6835 11.2239C32.6888 11.2399 31.676 11.2562 30.6286 11.2562V16.2562ZM28.1605 16.2945C28.9398 16.2674 29.7612 16.2562 30.6286 16.2562V11.2562C29.7199 11.2562 28.8384 11.2679 27.9865 11.2975L28.1605 16.2945ZM25.4435 13.4707C25.5145 13.6959 25.566 13.924 25.5991 14.1531L30.5479 13.439C30.4768 12.9464 30.3656 12.4544 30.2123 11.9679L25.4435 13.4707ZM20.9832 11.1786C22.7734 10.476 24.7833 11.3758 25.4435 13.4707L30.2123 11.9679C28.731 7.26759 23.7941 4.70403 19.1564 6.52426L20.9832 11.1786ZM18.5736 16.5359C17.8777 14.3277 19.054 11.9358 20.9832 11.1786L19.1564 6.52426C14.6578 8.28993 12.3593 13.4518 13.8048 18.0388L18.5736 16.5359ZM18.7459 16.9895C18.6816 16.8463 18.6238 16.6951 18.5736 16.5359L13.8048 18.0388C13.9131 18.3824 14.0401 18.7158 14.1847 19.0378L18.7459 16.9895ZM16.2558 24.3725C16.826 22.1455 17.5692 20.6343 18.4165 19.5766L14.5141 16.4507C13.098 18.2186 12.1012 20.4407 11.412 23.1324L16.2558 24.3725ZM16.3051 27.14C16.2007 26.3872 16.1855 25.3677 16.3216 24.0001L11.3462 23.5048C11.185 25.1243 11.1771 26.5629 11.3526 27.8272L16.3051 27.14ZM7.46145 39.4805C7.83478 36.4958 8.12291 34.5105 8.99244 33.0148C9.71953 31.7642 11.0387 30.5853 14.315 29.9359L13.3427 25.0313C9.04485 25.8833 6.29553 27.7056 4.66987 30.5018C3.18663 33.053 2.83778 36.1603 2.50011 38.86L7.46145 39.4805ZM7.35647 40.3132C7.39256 40.0313 7.42743 39.7525 7.46145 39.4805L2.50011 38.86C2.46595 39.133 2.43197 39.4047 2.39694 39.6783L7.35647 40.3132ZM29.6727 51.2457C20.1728 50.622 14.8391 49.3852 11.7626 47.5365C10.3008 46.6581 9.36446 45.6474 8.71507 44.4589C8.04489 43.2323 7.61469 41.6955 7.35647 39.6783L2.39694 40.3132C2.69855 42.6693 3.24804 44.881 4.32732 46.8563C5.42737 48.8696 7.01021 50.5141 9.18728 51.8223C13.3885 54.3469 19.8112 55.609 29.3452 56.2349L29.6727 51.2457ZM55.006 34.8258C54.7475 38.5762 53.8567 41.2721 52.5914 43.2618C51.3355 45.2368 49.6128 46.6706 47.4321 47.7522C42.9043 49.9979 36.7122 50.6128 29.2951 51.2495L29.7228 56.2311C36.8611 55.6184 44.1047 54.9838 49.6538 52.2315C52.5114 50.8141 54.9874 48.8118 56.8105 45.9449C58.6242 43.0928 59.6928 39.541 59.9942 35.1697L55.006 34.8258ZM47.9092 26.7076C50.6534 27.2725 52.3715 28.5441 53.4273 29.9862C54.511 31.4665 55.0001 33.2724 55.0001 34.9977H60.0001C60.0001 32.3736 59.2628 29.4929 57.4617 27.0326C55.6326 24.5341 52.8073 22.611 48.9173 21.8103L47.9092 26.7076ZM46.0429 21.2532C46.0429 22.2619 46.0176 23.1657 45.928 23.9879L50.8985 24.5299C51.0175 23.4385 51.0429 22.3231 51.0429 21.2532H46.0429Z" fill="white" mask="url(#path-1-outside-1_330_57)"/>
<path d="M29.7381 15C29.6871 16.2742 29.5923 17.5504 29.5923 18.826C29.5923 19.2535 29.6409 19.68 29.6409 20.1032" stroke="white" stroke-width="2.5" stroke-linecap="round"/>
<path d="M27.3083 17.6733C27.3246 17.5435 27.977 17.4786 28.032 17.4681C29.3124 17.223 30.6239 17.1329 31.9255 17.0955C32.3302 17.0838 32.7356 17.0901 33.1405 17.0901" stroke="white" stroke-width="2.5" stroke-linecap="round"/>
<path d="M25.1697 21.4154C27.5132 20.9 29.815 20.4434 32.2196 20.4434C32.7083 20.4434 33.197 20.4434 33.6857 20.4434C33.8603 20.4434 34.035 20.4434 34.2096 20.4434" stroke="white" stroke-width="2.5" stroke-linecap="round"/>
<path d="M17.7338 26.5187C18.0347 26.7143 18.2483 27.0401 18.5276 27.2666C19.1396 27.763 19.9089 28.115 20.6337 28.4087C22.2923 29.0809 24.0991 29.3803 25.8826 29.3862C26.9203 29.3896 27.9521 29.2492 28.9769 29.0946C29.6997 28.9855 30.4142 28.8162 30.8292 28.1657C31.2259 27.5439 31.488 26.975 31.488 26.2298C31.488 25.6874 31.3218 25.2162 31.1208 24.7177C30.9197 24.219 30.6369 23.9099 30.1191 23.7295C29.7095 23.5868 28.8831 23.3862 28.4855 23.662C27.6317 24.2541 27.4469 25.2239 27.6485 26.1785C27.9334 27.5282 29.5747 27.8395 30.7428 27.8741C31.9301 27.9093 33.1354 27.9121 34.3231 27.8741C35.1504 27.8476 36.0962 27.746 36.8909 27.5123C37.5714 27.3122 38.4671 27.0405 38.9888 26.543C39.2078 26.3341 39.4743 26.1738 39.653 25.9355" stroke="white" stroke-width="2.5" stroke-linecap="round"/>
<path d="M26.5305 32.6426C26.4815 32.8684 26.4157 33.0619 26.3361 33.2744" stroke="white" stroke-width="2.5" stroke-linecap="round"/>
<path d="M33.5779 30.7471V31.2817" stroke="white" stroke-width="2.5" stroke-linecap="round"/>
<path d="M31.2451 35.7043C31.6814 36.7378 33.1504 37.1168 34.1612 37.2191C34.7936 37.2831 35.4576 37.2788 36.0729 37.103C36.3107 37.035 36.6065 36.971 36.6885 36.725" stroke="white" stroke-width="2.5" stroke-linecap="round"/>
<path d="M30.3213 36.4819C29.6874 36.9253 29.1306 37.2136 28.3476 37.2515C28.0104 37.2678 27.6644 37.272 27.3296 37.2218C27.1088 37.1886 26.9135 37.1221 26.687 37.1138C26.5364 37.1082 26.3357 36.6883 26.1902 36.5791" stroke="white" stroke-width="2.5" stroke-linecap="round"/>
<path d="M28.3288 38.2314C27.7078 40.2421 26.144 42.2456 27.1947 44.4038C27.5131 45.0578 28.1684 45.7105 28.9174 45.8133C29.3177 45.8682 29.7204 45.869 30.1162 45.7836C30.5578 45.6882 30.7571 45.4976 31.0423 45.1626C31.3724 44.7749 31.7245 44.3878 31.9631 43.934C32.2249 43.4361 32.3728 42.8749 32.576 42.3518C32.8919 41.5386 33.1412 40.7073 33.2861 39.8461C33.3703 39.3458 33.4319 38.79 33.4319 38.28" stroke="white" stroke-width="2.5" stroke-linecap="round"/>
<path d="M26.5308 48.3408C27.2364 48.7278 27.8472 48.9521 28.6638 49.0131C29.2675 49.0583 29.8845 49.0839 30.4891 49.0374C31.0579 48.9937 31.5031 48.7893 32.0227 48.5838" stroke="white" stroke-width="2.5" stroke-linecap="round"/>
<path d="M47.5262 32.6424C48.3885 32.0524 49.6915 32.0002 50.6907 31.9349C51.4337 31.8864 52.161 31.9385 52.8994 32.0213C53.4303 32.0809 53.9932 32.2536 54.5249 32.2536" stroke="white" stroke-width="2.5" stroke-linecap="round"/>
<path d="M47.6233 35.2667C49.7678 35.1692 51.9195 35.2181 54.0657 35.2181C54.4368 35.2181 55.0477 35.0908 55.3995 35.2667" stroke="white" stroke-width="2.5" stroke-linecap="round"/>
<path d="M5.53467 35.024C7.90742 34.405 10.3563 33.7604 12.8249 33.7604" stroke="white" stroke-width="2.5" stroke-linecap="round"/>
<path d="M5 38.4259C6.79117 37.5368 8.90184 37.4037 10.8538 37.1191C11.7818 36.9837 12.7311 36.9089 13.6511 36.7249" stroke="white" stroke-width="2.5" stroke-linecap="round"/>
<path d="M30.4529 33.8423C30.2845 34.0738 30.5981 34.4483 30.8019 34.1827C30.8935 34.0635 31.0215 33.5752 30.7933 33.5019C30.6077 33.4422 30.3839 33.5271 30.2978 33.7044C30.25 33.8028 30.2302 33.9755 30.2999 34.0685C30.3603 34.149 30.5183 34.1138 30.608 34.1138" stroke="white" stroke-width="2.5" stroke-linecap="round"/>
</g>
<defs>
<clipPath id="clip0_330_57">
<rect width="60" height="60" fill="white"/>
</clipPath>
</defs>
</svg>
