<svg width="72" height="72" viewBox="0 0 72 72" fill="none" xmlns="http://www.w3.org/2000/svg">
<g clip-path="url(#clip0_311_582)">
<mask id="path-1-outside-1_311_582" maskUnits="userSpaceOnUse" x="1.85205" y="5.00018" width="71" height="63" fill="black">
<rect fill="white" x="1.85205" y="5.00018" width="71" height="63"/>
<path fill-rule="evenodd" clip-rule="evenodd" d="M58.2515 25.5039C57.5881 22.9126 56.6203 21.0524 55.3714 19.7204C55.3822 19.6875 55.3929 19.6545 55.4033 19.6214C56.6763 15.5821 54.5247 11.058 50.5976 9.51668C46.6705 7.97533 42.455 10.0004 41.182 14.0397C40.9306 14.8374 40.8128 15.6539 40.8158 16.4627L40.4685 16.4683C39.278 16.4875 38.0392 16.5075 36.7543 16.5075C35.6887 16.5075 34.6669 16.5212 33.6882 16.5553C33.6257 16.1222 33.5281 15.6902 33.3935 15.2632C32.1086 11.1861 27.9405 9.10804 24.0838 10.6218C20.2271 12.1355 18.1422 16.6677 19.4271 20.7448C19.5221 21.0465 19.633 21.3373 19.7584 21.6164C18.4003 23.3118 17.3563 25.5518 16.6007 28.503C16.4223 30.2953 16.4267 31.7701 16.5946 32.9803C7.5057 34.7821 6.83014 40.1831 5.97693 47.0043C5.93603 47.3314 5.89472 47.6616 5.85205 47.9949C7.19563 58.4908 12.57 62.989 35.4107 64.4884C52.8772 62.9891 67.6565 61.4897 69.0001 41.9973C69.0001 36.778 66.0569 30.7496 58.0959 29.1107C58.2211 27.9626 58.2515 26.751 58.2515 25.5039Z"/>
</mask>
<path d="M55.3714 19.7204L52.5223 18.7809L51.9644 20.4727L53.1829 21.7723L55.3714 19.7204ZM58.2515 25.5039H61.2515V25.126L61.1578 24.7598L58.2515 25.5039ZM55.4033 19.6214L58.2646 20.5232L58.2646 20.5231L55.4033 19.6214ZM41.182 14.0397L44.0433 14.9414L44.0433 14.9414L41.182 14.0397ZM40.8158 16.4627L40.864 19.4623L43.8268 19.4147L43.8157 16.4516L40.8158 16.4627ZM40.4685 16.4683L40.4203 13.4687L40.4202 13.4687L40.4685 16.4683ZM33.6882 16.5553L30.7189 16.9837L31.1032 19.6471L33.7926 19.5535L33.6882 16.5553ZM33.3935 15.2632L30.5322 16.1649L30.5322 16.1649L33.3935 15.2632ZM24.0838 10.6218L22.9877 7.82915L22.9877 7.82915L24.0838 10.6218ZM19.4271 20.7448L22.2884 19.8431L22.2884 19.8431L19.4271 20.7448ZM19.7584 21.6164L22.0998 23.492L23.2464 22.0605L22.4951 20.3875L19.7584 21.6164ZM16.6007 28.503L13.6944 27.7589L13.638 27.9794L13.6155 28.2058L16.6007 28.503ZM16.5946 32.9803L17.178 35.9231L19.9553 35.3725L19.5661 32.568L16.5946 32.9803ZM5.97693 47.0043L3.00013 46.632L3.00013 46.632L5.97693 47.0043ZM5.85205 47.9949L2.87633 47.614L2.82757 47.9949L2.87633 48.3759L5.85205 47.9949ZM35.4107 64.4884L35.2142 67.4819L35.4409 67.4968L35.6673 67.4774L35.4107 64.4884ZM69.0001 41.9973L71.993 42.2036L72.0001 42.1006V41.9973H69.0001ZM58.0959 29.1107L55.1135 28.7856L54.8177 31.4988L57.491 32.0491L58.0959 29.1107ZM53.1829 21.7723C53.9928 22.6361 54.7682 23.9941 55.3453 26.248L61.1578 24.7598C60.408 21.8311 59.2478 19.4687 57.5599 17.6685L53.1829 21.7723ZM52.5421 18.7196C52.5355 18.7403 52.529 18.7607 52.5223 18.7809L58.2205 20.6599C58.2355 20.6143 58.2502 20.5688 58.2646 20.5232L52.5421 18.7196ZM49.5015 12.3093C51.9515 13.2709 53.344 16.1749 52.542 18.7197L58.2646 20.5231C60.0086 14.9893 57.0979 8.84517 51.6937 6.72407L49.5015 12.3093ZM44.0433 14.9414C44.7975 12.548 47.2036 11.4074 49.5015 12.3093L51.6937 6.72407C46.1374 4.54331 40.1124 7.45272 38.3207 13.138L44.0433 14.9414ZM43.8157 16.4516C43.8139 15.9423 43.8879 15.4343 44.0433 14.9414L38.3207 13.138C37.9733 14.2404 37.8117 15.3655 37.8158 16.4739L43.8157 16.4516ZM40.5167 19.4679L40.864 19.4623L40.7676 13.4631L40.4203 13.4687L40.5167 19.4679ZM36.7543 19.5075C38.0671 19.5075 39.3295 19.487 40.5169 19.4679L40.4202 13.4687C39.2265 13.4879 38.0113 13.5075 36.7543 13.5075V19.5075ZM33.7926 19.5535C34.7278 19.5209 35.7135 19.5075 36.7543 19.5075V13.5075C35.6638 13.5075 34.6061 13.5215 33.5838 13.5571L33.7926 19.5535ZM30.5322 16.1649C30.6174 16.4351 30.6793 16.7088 30.7189 16.9837L36.6574 16.1269C36.5721 15.5357 36.4388 14.9453 36.2548 14.3615L30.5322 16.1649ZM25.1799 13.4144C27.3281 12.5712 29.74 13.651 30.5322 16.1649L36.2548 14.3615C34.4773 8.72114 28.5529 5.64488 22.9877 7.82915L25.1799 13.4144ZM22.2884 19.8431C21.4532 17.1932 22.8648 14.323 25.1799 13.4144L22.9877 7.82915C17.5894 9.94795 14.8311 16.1422 16.5658 21.6466L22.2884 19.8431ZM22.4951 20.3875C22.4179 20.2155 22.3485 20.0341 22.2884 19.8431L16.5658 21.6466C16.6958 22.059 16.8481 22.459 17.0216 22.8454L22.4951 20.3875ZM19.507 29.2471C20.1912 26.5747 21.0831 24.7612 22.0998 23.492L17.4169 19.7409C15.7176 21.8623 14.5214 24.5289 13.6944 27.7589L19.507 29.2471ZM19.5661 32.568C19.4408 31.6647 19.4226 30.4413 19.5859 28.8002L13.6155 28.2058C13.422 30.1492 13.4126 31.8756 13.6231 33.3927L19.5661 32.568ZM8.95374 47.3767C9.40174 43.795 9.7475 41.4126 10.7909 39.6178C11.6634 38.1171 13.2465 36.7024 17.178 35.9231L16.0113 30.0376C10.8538 31.06 7.55463 33.2467 5.60384 36.6022C3.82396 39.6637 3.40534 43.3924 3.00013 46.632L8.95374 47.3767ZM8.82777 48.3759C8.87107 48.0376 8.91292 47.703 8.95374 47.3767L3.00013 46.632C2.95914 46.9597 2.91836 47.2857 2.87633 47.614L8.82777 48.3759ZM35.6073 61.4948C24.2073 60.7465 17.8069 59.2623 14.1152 57.0439C12.361 55.9898 11.2374 54.7769 10.4581 53.3507C9.65387 51.8788 9.13763 50.0346 8.82777 47.614L2.87633 48.3759C3.23826 51.2032 3.89765 53.8572 5.19278 56.2276C6.51285 58.6436 8.41226 60.6169 11.0247 62.1868C16.0663 65.2163 23.7734 66.7309 35.2142 67.4819L35.6073 61.4948ZM66.0072 41.791C65.697 46.2915 64.628 49.5265 63.1097 51.9142C61.6026 54.2842 59.5354 56.0047 56.9185 57.3027C51.4852 59.9975 44.0547 60.7354 35.1542 61.4994L35.6673 67.4774C44.2333 66.7421 52.9256 65.9806 59.5845 62.6778C63.0137 60.977 65.9849 58.5741 68.1726 55.1339C70.3491 51.7113 71.6314 47.4493 71.993 42.2036L66.0072 41.791ZM57.491 32.0491C60.784 32.727 62.8458 34.2529 64.1127 35.9835C65.4132 37.7598 66.0001 39.9269 66.0001 41.9973H72.0001C72.0001 38.8484 71.1154 35.3916 68.954 32.4392C66.7591 29.441 63.3688 27.1333 58.7008 26.1723L57.491 32.0491ZM55.2515 25.5039C55.2515 26.7143 55.2211 27.7988 55.1135 28.7856L61.0782 29.4359C61.221 28.1263 61.2515 26.7877 61.2515 25.5039H55.2515Z" fill="white" mask="url(#path-1-outside-1_311_582)"/>
<path d="M35.6857 18C35.6245 19.529 35.5107 21.0605 35.5107 22.5912C35.5107 23.1042 35.5691 23.6159 35.5691 24.1238" stroke="white" stroke-width="3" stroke-linecap="round"/>
<path d="M32.77 21.2079C32.7895 21.0522 33.5724 20.9742 33.6384 20.9616C35.1749 20.6675 36.7487 20.5594 38.3106 20.5145C38.7963 20.5005 39.2828 20.508 39.7686 20.508" stroke="white" stroke-width="3" stroke-linecap="round"/>
<path d="M30.2036 25.6985C33.0159 25.08 35.778 24.5321 38.6635 24.5321C39.25 24.5321 39.8364 24.5321 40.4229 24.5321C40.6324 24.5321 40.8419 24.5321 41.0515 24.5321" stroke="white" stroke-width="3" stroke-linecap="round"/>
<path d="M21.2805 31.8225C21.6416 32.0572 21.898 32.4482 22.2331 32.72C22.9675 33.3157 23.8907 33.7381 24.7604 34.0906C26.7508 34.8972 28.9189 35.2564 31.0591 35.2635C32.3043 35.2676 33.5425 35.0991 34.7723 34.9135C35.6396 34.7827 36.497 34.5796 36.995 33.7989C37.471 33.0527 37.7856 32.3701 37.7856 31.4758C37.7856 30.8249 37.5861 30.2595 37.3449 29.6613C37.1036 29.0628 36.7642 28.692 36.1429 28.4755C35.6514 28.3042 34.6597 28.0635 34.1826 28.3945C33.1581 29.105 32.9363 30.2687 33.1782 31.4142C33.5201 33.0339 35.4896 33.4075 36.8913 33.449C38.3161 33.4912 39.7624 33.4946 41.1877 33.449C42.1804 33.4172 43.3154 33.2953 44.269 33.0148C45.0856 32.7747 46.1605 32.4486 46.7866 31.8516C47.0494 31.601 47.3692 31.4086 47.5837 31.1226" stroke="white" stroke-width="3" stroke-linecap="round"/>
<path d="M31.8366 39.171C31.7778 39.442 31.6989 39.6742 31.6033 39.9292" stroke="white" stroke-width="3" stroke-linecap="round"/>
<path d="M40.2935 36.8965V37.538" stroke="white" stroke-width="3" stroke-linecap="round"/>
<path d="M37.4941 42.8452C38.0177 44.0853 39.7805 44.5402 40.9934 44.6629C41.7524 44.7397 42.5491 44.7345 43.2874 44.5236C43.5728 44.442 43.9278 44.3652 44.0262 44.07" stroke="white" stroke-width="3" stroke-linecap="round"/>
<path d="M36.3856 43.7783C35.6249 44.3103 34.9567 44.6563 34.0171 44.7017C33.6125 44.7213 33.1973 44.7264 32.7955 44.6661C32.5306 44.6264 32.2962 44.5466 32.0244 44.5365C31.8437 44.5298 31.6029 44.0259 31.4282 43.895" stroke="white" stroke-width="3" stroke-linecap="round"/>
<path d="M33.9945 45.8778C33.2494 48.2906 31.3728 50.6948 32.6337 53.2847C33.0157 54.0695 33.802 54.8526 34.7008 54.976C35.1813 55.042 35.6645 55.0429 36.1394 54.9404C36.6693 54.826 36.9085 54.5972 37.2508 54.1951C37.6469 53.7299 38.0694 53.2654 38.3557 52.7209C38.6698 52.1234 38.8473 51.4499 39.0912 50.8222C39.4702 49.8463 39.7695 48.8488 39.9433 47.8154C40.0443 47.215 40.1183 46.548 40.1183 45.9361" stroke="white" stroke-width="3" stroke-linecap="round"/>
<path d="M31.8369 58.0089C32.6837 58.4733 33.4166 58.7424 34.3966 58.8157C35.121 58.8699 35.8614 58.9007 36.5869 58.8449C37.2695 58.7924 37.8037 58.547 38.4273 58.3005" stroke="white" stroke-width="3" stroke-linecap="round"/>
<path d="M57.0315 39.1708C58.0662 38.4628 59.6298 38.4001 60.8289 38.3219C61.7204 38.2636 62.5932 38.3261 63.4793 38.4255C64.1163 38.497 64.7918 38.7042 65.4298 38.7042" stroke="white" stroke-width="3" stroke-linecap="round"/>
<path d="M57.1479 42.3201C59.7214 42.2032 62.3033 42.2618 64.8788 42.2618C65.3242 42.2618 66.0572 42.109 66.4794 42.3201" stroke="white" stroke-width="3" stroke-linecap="round"/>
<path d="M6.6416 42.0288C9.4889 41.286 12.4276 40.5125 15.3899 40.5125" stroke="white" stroke-width="3" stroke-linecap="round"/>
<path d="M6 46.1111C8.1494 45.0441 10.6822 44.8845 13.0245 44.5429C14.1381 44.3805 15.2773 44.2906 16.3813 44.0698" stroke="white" stroke-width="3" stroke-linecap="round"/>
<path d="M36.5435 40.6108C36.3414 40.8886 36.7177 41.3381 36.9623 41.0193C37.0721 40.8762 37.2258 40.2903 36.952 40.2023C36.7293 40.1307 36.4606 40.2326 36.3573 40.4453C36.3 40.5634 36.2762 40.7707 36.3599 40.8823C36.4323 40.9789 36.6219 40.9366 36.7296 40.9366" stroke="white" stroke-width="3" stroke-linecap="round"/>
</g>
<defs>
<clipPath id="clip0_311_582">
<rect width="72" height="72" fill="white"/>
</clipPath>
</defs>
</svg>
