<svg width="60" height="60" viewBox="0 0 60 60" fill="none" xmlns="http://www.w3.org/2000/svg">
<g id="icon01" clip-path="url(#clip0_330_19)">
<g id="Union">
<mask id="path-1-outside-1_330_19" maskUnits="userSpaceOnUse" x="-0.514" y="-0.514038" width="61" height="61" fill="black">
<rect fill="white" x="-0.514" y="-0.514038" width="61" height="61"/>
<path fill-rule="evenodd" clip-rule="evenodd" d="M22.9956 7.04363C22.9956 7.39641 22.9555 7.73984 22.8797 8.06959C25.0714 7.40329 27.4075 7.04358 29.8321 7.04358C32.2566 7.04358 34.5927 7.40327 36.7844 8.06956C36.7086 7.73981 36.6685 7.3964 36.6685 7.04363C36.6685 4.5265 38.709 2.48596 41.2262 2.48596C43.7433 2.48596 45.7838 4.5265 45.7838 7.04363C45.7838 8.85531 44.7268 10.4201 43.1958 11.1549C48.9064 15.0889 52.6204 21.4787 52.6204 28.6925C52.6204 28.7503 52.6202 28.808 52.6197 28.8657C55.4998 31.7533 57.178 35.2196 57.178 38.9472C57.178 49.0158 44.9348 57.1779 29.832 57.1779C14.7292 57.1779 2.486 49.0158 2.486 38.9472C2.486 35.2195 4.16423 31.7531 7.04448 28.8655C7.04401 28.8079 7.04377 28.7502 7.04377 28.6925C7.04377 21.4787 10.7578 15.089 16.4684 11.1549C14.9373 10.4201 13.8803 8.85533 13.8803 7.04363C13.8803 4.5265 15.9208 2.48596 18.4379 2.48596C20.9551 2.48596 22.9956 4.5265 22.9956 7.04363Z"/>
</mask>
<path d="M22.8797 8.06959L20.4569 7.51225L19.4942 11.6971L23.6027 10.4481L22.8797 8.06959ZM36.7844 8.06956L36.0614 10.4481L40.1698 11.697L39.2072 7.51223L36.7844 8.06956ZM43.1958 11.1549L42.1201 8.91366L38.2539 10.7692L41.7854 13.2021L43.1958 11.1549ZM52.6197 28.8657L50.1338 28.8451L50.1252 29.885L50.8596 30.6213L52.6197 28.8657ZM7.04448 28.8655L8.80459 30.6211L9.53896 29.8849L9.5304 28.845L7.04448 28.8655ZM16.4684 11.1549L17.8787 13.2022L21.4103 10.7692L17.544 8.91368L16.4684 11.1549ZM25.3024 8.62693C25.42 8.11565 25.4816 7.58529 25.4816 7.04363H20.5096C20.5096 7.20753 20.491 7.36402 20.4569 7.51225L25.3024 8.62693ZM29.8321 4.55758C27.1608 4.55758 24.5811 4.95402 22.1566 5.69107L23.6027 10.4481C25.5618 9.85255 27.6543 9.52958 29.8321 9.52958V4.55758ZM37.5075 5.69104C35.0831 4.95401 32.5034 4.55758 29.8321 4.55758V9.52958C32.0098 9.52958 34.1023 9.85254 36.0614 10.4481L37.5075 5.69104ZM39.2072 7.51223C39.1731 7.364 39.1545 7.20753 39.1545 7.04363H34.1825C34.1825 7.58528 34.2441 8.11563 34.3617 8.62689L39.2072 7.51223ZM39.1545 7.04363C39.1545 5.89948 40.082 4.97196 41.2262 4.97196V-3.8147e-05C37.3361 -3.8147e-05 34.1825 3.15352 34.1825 7.04363H39.1545ZM41.2262 4.97196C42.3703 4.97196 43.2978 5.89948 43.2978 7.04363H48.2698C48.2698 3.15352 45.1163 -3.8147e-05 41.2262 -3.8147e-05V4.97196ZM43.2978 7.04363C43.2978 7.86339 42.8219 8.57686 42.1201 8.91366L44.2715 13.3961C46.6317 12.2633 48.2698 9.84722 48.2698 7.04363H43.2978ZM55.1064 28.6925C55.1064 20.5933 50.9325 13.4659 44.6061 9.10767L41.7854 13.2021C46.8803 16.7119 50.1344 22.3641 50.1344 28.6925H55.1064ZM55.1056 28.8862C55.1062 28.8216 55.1064 28.7571 55.1064 28.6925H50.1344C50.1344 28.7435 50.1342 28.7944 50.1338 28.8451L55.1056 28.8862ZM59.664 38.9472C59.664 34.427 57.6204 30.359 54.3799 27.1101L50.8596 30.6213C53.3793 33.1475 54.692 36.0122 54.692 38.9472H59.664ZM29.832 59.6639C37.8057 59.6639 45.137 57.5137 50.5475 53.9067C55.9406 50.3113 59.664 45.0713 59.664 38.9472H54.692C54.692 42.8917 52.2938 46.767 47.7896 49.7698C43.3027 52.761 36.961 54.6919 29.832 54.6919V59.6639ZM0 38.9472C0 45.0713 3.72336 50.3113 9.11647 53.9067C14.527 57.5137 21.8583 59.6639 29.832 59.6639V54.6919C22.703 54.6919 16.3613 52.761 11.8744 49.7698C7.37025 46.767 4.972 42.8917 4.972 38.9472H0ZM5.28437 27.1099C2.04369 30.3588 0 34.4269 0 38.9472H4.972C4.972 36.0122 6.28478 33.1474 8.80459 30.6211L5.28437 27.1099ZM4.55777 28.6925C4.55777 28.757 4.55803 28.8215 4.55856 28.886L9.5304 28.845C9.52998 28.7942 9.52977 28.7434 9.52977 28.6925H4.55777ZM15.058 9.1077C8.73165 13.466 4.55777 20.5933 4.55777 28.6925H9.52977C9.52977 22.3641 12.7839 16.712 17.8787 13.2022L15.058 9.1077ZM11.3943 7.04363C11.3943 9.84725 13.0324 12.2634 15.3927 13.3962L17.544 8.91368C16.8423 8.57688 16.3663 7.86341 16.3663 7.04363H11.3943ZM18.4379 -3.8147e-05C14.5478 -3.8147e-05 11.3943 3.15352 11.3943 7.04363H16.3663C16.3663 5.89948 17.2938 4.97196 18.4379 4.97196V-3.8147e-05ZM25.4816 7.04363C25.4816 3.15352 22.328 -3.8147e-05 18.4379 -3.8147e-05V4.97196C19.5821 4.97196 20.5096 5.89948 20.5096 7.04363H25.4816Z" fill="white" mask="url(#path-1-outside-1_330_19)"/>
</g>
<circle id="Ellipse 10" cx="18.645" cy="31.075" r="4.972" stroke="white" stroke-width="2.486"/>
<circle id="Ellipse 11" cx="41.019" cy="31.075" r="4.972" stroke="white" stroke-width="2.486"/>
<path id="Vector 2" d="M17.402 21.3115C21.2745 19.712 22.374 22.374 22.374 22.374" stroke="white" stroke-width="2.486" stroke-linecap="round"/>
<path id="Vector 3" d="M42.262 21.4874C38.3895 19.8879 37.29 22.5499 37.29 22.5499" stroke="white" stroke-width="2.486" stroke-linecap="round"/>
<circle id="Ellipse 12" cx="29.832" cy="34.804" r="1.243" fill="#D9D9D9" stroke="white" stroke-width="2.486"/>
<path id="Vector 4" d="M23.617 38.533C23.617 44.748 36.047 44.748 36.047 38.533" stroke="white" stroke-width="2.486" stroke-linecap="round"/>
<path id="Vector 5" d="M26.1031 42.262C25.6888 44.3336 25.1087 48.7256 26.1031 49.72C27.3461 50.963 32.318 50.963 33.561 49.72C34.5554 48.7256 33.9753 44.3336 33.561 42.262" stroke="white" stroke-width="1.9888" stroke-linecap="round"/>
</g>
<defs>
<clipPath id="clip0_330_19">
<rect width="60" height="60" fill="white"/>
</clipPath>
</defs>
</svg>
