<svg width="100%" height="100%" viewBox="0 0 72 72" fill="none" xmlns="http://www.w3.org/2000/svg">
<g id="icon01" clip-path="url(#clip0_256_202)">
<g id="Union">
<mask id="path-1-outside-1_256_202" maskUnits="userSpaceOnUse" x="-0.0168457" y="-0.0167847" width="72" height="72" fill="black">
<rect fill="white" x="-0.0168457" y="-0.0167847" width="72" height="72"/>
<path fill-rule="evenodd" clip-rule="evenodd" d="M27.5947 8.45242C27.5947 8.87576 27.5466 9.28786 27.4555 9.68357C30.0857 8.884 32.889 8.45235 35.7985 8.45235C38.7079 8.45235 41.5112 8.88399 44.1413 9.68353C44.0503 9.28784 44.0022 8.87574 44.0022 8.45242C44.0022 5.43186 46.4508 2.98322 49.4714 2.98322C52.4919 2.98322 54.9406 5.43186 54.9406 8.45242C54.9406 10.6264 53.6721 12.5042 51.8349 13.3859C58.6876 18.1068 63.1445 25.7745 63.1445 34.4311C63.1445 34.5004 63.1442 34.5697 63.1436 34.6389C66.5998 38.104 68.6136 42.2636 68.6136 46.7368C68.6136 58.819 53.9217 68.6136 35.7984 68.6136C17.675 68.6136 2.98315 58.819 2.98315 46.7368C2.98315 42.2635 4.99703 38.1038 8.45333 34.6387C8.45276 34.5695 8.45248 34.5003 8.45248 34.4311C8.45248 25.7745 12.9093 18.1068 19.762 13.386C17.9248 12.5042 16.6563 10.6265 16.6563 8.45242C16.6563 5.43186 19.1049 2.98322 22.1255 2.98322C25.146 2.98322 27.5947 5.43186 27.5947 8.45242Z"/>
</mask>
<path d="M27.4555 9.68357L24.5483 9.01477L23.393 14.0366L28.3232 12.5378L27.4555 9.68357ZM44.1413 9.68353L43.2736 12.5378L48.2038 14.0365L47.0485 9.01474L44.1413 9.68353ZM51.8349 13.3859L50.5441 10.6965L45.9046 12.9232L50.1425 15.8426L51.8349 13.3859ZM63.1436 34.6389L60.1605 34.6142L60.1502 35.8621L61.0315 36.7456L63.1436 34.6389ZM8.45333 34.6387L10.5655 36.7454L11.4467 35.8619L11.4364 34.6141L8.45333 34.6387ZM19.762 13.386L21.4544 15.8426L25.6923 12.9231L21.0528 10.6965L19.762 13.386ZM30.3628 10.3524C30.504 9.73884 30.5779 9.10241 30.5779 8.45242H24.6115C24.6115 8.6491 24.5892 8.83688 24.5483 9.01477L30.3628 10.3524ZM35.7985 5.46915C32.5929 5.46915 29.4972 5.94489 26.5879 6.82935L28.3232 12.5378C30.6741 11.8231 33.1852 11.4356 35.7985 11.4356V5.46915ZM45.009 6.8293C42.0996 5.94487 39.004 5.46915 35.7985 5.46915V11.4356C38.4118 11.4356 40.9228 11.8231 43.2736 12.5378L45.009 6.8293ZM47.0485 9.01474C47.0076 8.83687 46.9854 8.6491 46.9854 8.45242H41.019C41.019 9.10239 41.0929 9.7388 41.234 10.3523L47.0485 9.01474ZM46.9854 8.45242C46.9854 7.07943 48.0984 5.96642 49.4714 5.96642V1.52588e-05C44.8032 1.52588e-05 41.019 3.78428 41.019 8.45242H46.9854ZM49.4714 5.96642C50.8443 5.96642 51.9574 7.07943 51.9574 8.45242H57.9238C57.9238 3.78428 54.1395 1.52588e-05 49.4714 1.52588e-05V5.96642ZM51.9574 8.45242C51.9574 9.43614 51.3862 10.2923 50.5441 10.6965L53.1257 16.0754C55.958 14.7161 57.9238 11.8167 57.9238 8.45242H51.9574ZM66.1277 34.4311C66.1277 24.712 61.119 16.1592 53.5273 10.9293L50.1425 15.8426C56.2563 20.0544 60.1613 26.837 60.1613 34.4311H66.1277ZM66.1267 34.6636C66.1274 34.5861 66.1277 34.5086 66.1277 34.4311H60.1613C60.1613 34.4922 60.161 34.5533 60.1605 34.6142L66.1267 34.6636ZM71.5968 46.7368C71.5968 41.3124 69.1444 36.4309 65.2558 32.5322L61.0315 36.7456C64.0551 39.7771 65.6304 43.2147 65.6304 46.7368H71.5968ZM35.7984 71.5968C45.3668 71.5968 54.1644 69.0165 60.657 64.6882C67.1287 60.3737 71.5968 54.0857 71.5968 46.7368H65.6304C65.6304 51.4701 62.7525 56.1205 57.3474 59.7238C51.9632 63.3133 44.3532 65.6304 35.7984 65.6304V71.5968ZM-4.57764e-05 46.7368C-4.57764e-05 54.0857 4.46799 60.3737 10.9397 64.6882C17.4323 69.0165 26.2299 71.5968 35.7984 71.5968V65.6304C27.2435 65.6304 19.6335 63.3133 14.2493 59.7238C8.84425 56.1205 5.96635 51.4701 5.96635 46.7368H-4.57764e-05ZM6.3412 32.5319C2.45238 36.4307 -4.57764e-05 41.3123 -4.57764e-05 46.7368H5.96635C5.96635 43.2146 7.54169 39.7769 10.5655 36.7454L6.3412 32.5319ZM5.46928 34.4311C5.46928 34.5085 5.46959 34.5859 5.47023 34.6632L11.4364 34.6141C11.4359 34.5531 11.4357 34.4921 11.4357 34.4311H5.46928ZM18.0696 10.9293C10.4779 16.1592 5.46928 24.712 5.46928 34.4311H11.4357C11.4357 26.837 15.3407 20.0544 21.4544 15.8426L18.0696 10.9293ZM13.6731 8.45242C13.6731 11.8168 15.6389 14.7161 18.4712 16.0755L21.0528 10.6965C20.2107 10.2923 19.6395 9.43615 19.6395 8.45242H13.6731ZM22.1255 1.52588e-05C17.4573 1.52588e-05 13.6731 3.78428 13.6731 8.45242H19.6395C19.6395 7.07944 20.7525 5.96642 22.1255 5.96642V1.52588e-05ZM30.5779 8.45242C30.5779 3.78428 26.7936 1.52588e-05 22.1255 1.52588e-05V5.96642C23.4985 5.96642 24.6115 7.07944 24.6115 8.45242H30.5779Z" fill="white" mask="url(#path-1-outside-1_256_202)"/>
</g>
<circle id="Ellipse 10" cx="22.374" cy="37.29" r="5.9664" stroke="white" stroke-width="2.9832"/>
<circle id="Ellipse 11" cx="49.2228" cy="37.29" r="5.9664" stroke="white" stroke-width="2.9832"/>
<path id="Vector 2" d="M20.8824 25.5739C25.5295 23.6545 26.8488 26.8488 26.8488 26.8488" stroke="white" stroke-width="2.9832" stroke-linecap="round"/>
<path id="Vector 3" d="M50.7144 25.7849C46.0673 23.8655 44.748 27.0598 44.748 27.0598" stroke="white" stroke-width="2.9832" stroke-linecap="round"/>
<circle id="Ellipse 12" cx="35.7984" cy="41.7648" r="1.4916" fill="#D9D9D9" stroke="white" stroke-width="2.9832"/>
<path id="Vector 4" d="M28.3405 46.2396C28.3405 53.6976 43.2565 53.6976 43.2565 46.2396" stroke="white" stroke-width="2.9832" stroke-linecap="round"/>
<path id="Vector 5" d="M31.3237 50.7144C30.8265 53.2004 30.1304 58.4707 31.3237 59.664C32.8153 61.1556 38.7816 61.1556 40.2732 59.664C41.4664 58.4707 40.7704 53.2004 40.2732 50.7144" stroke="white" stroke-width="2.38656" stroke-linecap="round"/>
</g>
<defs>
<clipPath id="clip0_256_202">
<rect width="72" height="72" fill="white"/>
</clipPath>
</defs>
</svg>
