<svg width="100%" height="100%" viewBox="0 0 72 72" fill="none" xmlns="http://www.w3.org/2000/svg">
<g id="icon02" clip-path="url(#clip0_311_494)">
<path id="Vector 10" d="M10.4686 28.4156C9.47156 29.4127 8.97316 31.4068 8.97316 34.3979C-2.99128 41.8757 -0.0578216 64.5062 14.9555 68.7958C25.4244 71.7869 51.5266 71.0624 58.3266 68.7958C71.7867 64.3091 74.7778 41.8757 62.8133 34.3979C62.8133 31.4068 62.8133 29.9112 61.3178 28.4156" stroke="white" stroke-width="2.3929" stroke-linecap="round"/>
<g id="Union">
<mask id="path-2-outside-1_311_494" maskUnits="userSpaceOnUse" x="-0.00878906" y="-0.0088501" width="72" height="30" fill="black">
<rect fill="white" x="-0.00878906" y="-0.0088501" width="72" height="30"/>
<path fill-rule="evenodd" clip-rule="evenodd" d="M50.8409 18.5266C50.8464 18.3384 50.8491 18.1452 50.8491 17.9467C50.8491 8.97339 44.1533 2.99115 35.8935 2.99115C27.6338 2.99115 20.9379 8.97339 20.9379 17.9467C20.9379 18.1452 20.9406 18.3384 20.9462 18.5266C16.6867 20.9858 11.495 17.7658 8.98055 15.3338C5.0039 13.7792 2.99121 17.3723 2.99121 19.6786C2.99121 23.678 9.02462 26.9201 16.4672 26.9201C20.4572 26.9201 30.0156 26.2894 32.9379 25.4718C34.05 25.1607 35.0475 24.8688 35.8935 24.5831C36.7395 24.8688 37.737 25.1607 38.8492 25.4718C41.7714 26.2894 51.3299 26.9201 55.3198 26.9201C62.7624 26.9201 68.7959 23.678 68.7959 19.6786C68.7959 17.3723 66.7832 13.7792 62.8065 15.3338C60.292 17.7658 55.1003 20.9858 50.8409 18.5266Z"/>
</mask>
<path d="M50.8409 18.5266L47.8511 18.4383L47.7984 20.2238L49.3453 21.117L50.8409 18.5266ZM20.9462 18.5266L22.4418 21.117L23.9887 20.2238L23.936 18.4383L20.9462 18.5266ZM8.98055 15.3338L11.06 13.1838L10.6286 12.7665L10.0696 12.548L8.98055 15.3338ZM32.9379 25.4718L32.132 22.5913L32.9379 25.4718ZM35.8935 24.5831L36.8503 21.7492L35.8935 21.4261L34.9367 21.7492L35.8935 24.5831ZM38.8492 25.4718L39.6551 22.5913L38.8492 25.4718ZM62.8065 15.3338L61.7175 12.548L61.1584 12.7665L60.727 13.1838L62.8065 15.3338ZM53.8307 18.6148C53.8372 18.395 53.8403 18.1722 53.8403 17.9467H47.858C47.858 18.1181 47.8557 18.2819 47.8511 18.4383L53.8307 18.6148ZM53.8403 17.9467C53.8403 7.22774 45.7099 2.98023e-05 35.8935 2.98023e-05V5.98227C42.5966 5.98227 47.858 10.719 47.858 17.9467H53.8403ZM35.8935 2.98023e-05C26.0771 2.98023e-05 17.9468 7.22774 17.9468 17.9467H23.9291C23.9291 10.719 29.1905 5.98227 35.8935 5.98227V2.98023e-05ZM17.9468 17.9467C17.9468 18.1722 17.9499 18.3949 17.9564 18.6149L23.936 18.4383C23.9314 18.2819 23.9291 18.1182 23.9291 17.9467H17.9468ZM19.4506 15.9362C18.3663 16.5623 17.0111 16.5811 15.3562 15.9626C13.688 15.3391 12.1007 14.1904 11.06 13.1838L6.90106 17.4838C8.37482 18.9092 10.6407 20.5865 13.2618 21.5662C15.8962 22.5509 19.2667 22.9501 22.4418 21.117L19.4506 15.9362ZM10.0696 12.548C8.61954 11.9811 7.15835 11.8152 5.76281 12.1031C4.37151 12.39 3.24221 13.0876 2.38813 13.9348C0.763206 15.5467 9.08375e-05 17.8143 9.08375e-05 19.6786H5.98233C5.98233 19.5114 6.02441 19.2253 6.15089 18.9042C6.27555 18.5877 6.44134 18.3404 6.60114 18.1819C6.74732 18.0369 6.86682 17.9835 6.97132 17.962C7.0716 17.9413 7.35324 17.9092 7.89149 18.1196L10.0696 12.548ZM9.08375e-05 19.6786C9.08375e-05 23.309 2.69199 25.913 5.52239 27.4339C8.47603 29.0211 12.3509 29.9112 16.4672 29.9112V23.929C13.1409 23.929 10.2778 23.1981 8.35409 22.1643C6.30714 21.0644 5.98233 20.0475 5.98233 19.6786H9.08375e-05ZM16.4672 29.9112C18.5703 29.9112 22.0431 29.7476 25.3411 29.4842C28.5369 29.2289 31.9544 28.8529 33.7438 28.3523L32.132 22.5913C30.9991 22.9082 28.1763 23.2564 24.8648 23.5209C21.6556 23.7773 18.3541 23.929 16.4672 23.929V29.9112ZM33.7438 28.3523C34.8662 28.0383 35.9263 27.7291 36.8503 27.4171L34.9367 21.7492C34.1688 22.0084 33.2338 22.283 32.132 22.5913L33.7438 28.3523ZM34.9367 27.4171C35.8608 27.7291 36.9209 28.0383 38.0433 28.3523L39.6551 22.5913C38.5532 22.283 37.6183 22.0084 36.8503 21.7492L34.9367 27.4171ZM38.0433 28.3523C39.8326 28.8529 43.2502 29.2289 46.446 29.4842C49.744 29.7476 53.2168 29.9112 55.3198 29.9112V23.929C53.4329 23.929 50.1315 23.7773 46.9223 23.5209C43.6108 23.2564 40.788 22.9082 39.6551 22.5913L38.0433 28.3523ZM55.3198 29.9112C59.4361 29.9112 63.311 29.0211 66.2647 27.4339C69.0951 25.913 71.787 23.309 71.787 19.6786H65.8047C65.8047 20.0475 65.4799 21.0644 63.433 22.1643C61.5093 23.1981 58.6462 23.929 55.3198 23.929V29.9112ZM71.787 19.6786C71.787 17.8143 71.0239 15.5467 69.3989 13.9348C68.5449 13.0876 67.4156 12.39 66.0243 12.1031C64.6287 11.8152 63.1675 11.9811 61.7175 12.548L63.8956 18.1196C64.4338 17.9092 64.7155 17.9413 64.8157 17.962C64.9202 17.9835 65.0397 18.0369 65.1859 18.1819C65.3457 18.3404 65.5115 18.5877 65.6362 18.9042C65.7627 19.2253 65.8047 19.5114 65.8047 19.6786H71.787ZM60.727 13.1838C59.6863 14.1904 58.0991 15.3391 56.4308 15.9626C54.776 16.5811 53.4208 16.5623 52.3365 15.9362L49.3453 21.117C52.5204 22.9501 55.8908 22.5509 58.5253 21.5662C61.1464 20.5865 63.4122 18.9092 64.886 17.4838L60.727 13.1838Z" fill="white" mask="url(#path-2-outside-1_311_494)"/>
</g>
<path id="Vector 8" d="M9.47918 13.4601C8.48214 9.97043 8.28273 2.99115 15.4614 2.99115C19.0508 2.99115 21.9421 5.98227 22.9391 7.47783" stroke="white" stroke-width="2.3929" stroke-linecap="round"/>
<path id="Vector 9" d="M64.3087 13.4601C65.3057 9.97043 65.5051 2.99115 58.3264 2.99115C54.7371 2.99115 51.8457 5.98227 50.8487 7.47783" stroke="white" stroke-width="2.3929" stroke-linecap="round"/>
<path id="Ellipse 16" d="M28.8837 44.1192C28.8837 45.3582 28.2141 46.3625 27.3881 46.3625C26.5622 46.3625 25.8926 45.3582 25.8926 44.1192C25.8926 42.8802 26.5622 41.8759 27.3881 41.8759C28.2141 41.8759 28.8837 42.8802 28.8837 44.1192Z" fill="white"/>
<path id="Ellipse 17" d="M45.8695 44.119C45.8695 45.358 45.2 46.3624 44.374 46.3624C43.548 46.3624 42.8784 45.358 42.8784 44.119C42.8784 42.88 43.548 41.8757 44.374 41.8757C45.2 41.8757 45.8695 42.88 45.8695 44.119Z" fill="white"/>
<path id="Union_2" fill-rule="evenodd" clip-rule="evenodd" d="M37.3889 46.3624C37.3889 47.1257 36.8171 47.7554 36.0784 47.8466L36.7393 48.5075C37.3863 49.1544 38.2931 49.7245 39.0811 49.8558C39.4495 49.9172 39.7439 49.8762 39.9851 49.7556C40.2232 49.6365 40.5229 49.3835 40.8054 48.8184C41.1009 48.2274 41.8196 47.9879 42.4106 48.2834C43.0016 48.5789 43.2412 49.2976 42.9457 49.8886C42.4804 50.819 41.8454 51.5008 41.0553 51.8958C40.7325 52.0572 40.4029 52.1612 40.0744 52.2191C40.0978 52.4388 40.0607 52.6675 39.9546 52.8797L38.459 55.8708L38.1283 56.5322H37.3889H34.3977H33.6583L33.3276 55.8708L31.832 52.8797C31.7259 52.6675 31.6888 52.4388 31.7122 52.2191C31.3837 52.1612 31.0541 52.0572 30.7313 51.8958C29.9412 51.5008 29.3062 50.819 28.8409 49.8886C28.5454 49.2976 28.785 48.5789 29.376 48.2834C29.967 47.9879 30.6857 48.2274 30.9812 48.8184C31.2637 49.3835 31.5634 49.6365 31.8015 49.7556C32.0428 49.8762 32.3372 49.9172 32.7055 49.8558C33.4935 49.7245 34.4004 49.1544 35.0473 48.5075L35.7082 47.8466C34.9696 47.7554 34.3977 47.1257 34.3977 46.3624C34.3977 45.5364 35.0673 44.8668 35.8933 44.8668C36.7193 44.8668 37.3889 45.5364 37.3889 46.3624ZM34.0482 51.9614L35.1372 54.1393H36.6494L37.7384 51.9614C37.0608 51.7123 36.4313 51.3401 35.8933 50.9339C35.3553 51.3401 34.7258 51.7123 34.0482 51.9614Z" fill="white"/>
<path id="Ellipse 19" d="M29.3376 39.2285C29.0663 40.0086 27.8977 40.3111 26.7275 39.9042C25.5572 39.4972 24.8285 38.5349 25.0998 37.7547C25.3711 36.9746 26.5397 36.6721 27.7099 37.079C28.8802 37.486 29.6089 38.4483 29.3376 39.2285Z" fill="white"/>
<path id="Ellipse 20" d="M42.5165 39.0701C42.768 39.8569 43.9286 40.1888 45.1087 39.8115C46.2889 39.4343 47.0416 38.4906 46.7901 37.7039C46.5386 36.9171 45.378 36.5852 44.1979 36.9625C43.0178 37.3397 42.265 38.2834 42.5165 39.0701Z" fill="white"/>
</g>
<defs>
<clipPath id="clip0_311_494">
<rect width="72" height="72" fill="white"/>
</clipPath>
</defs>
</svg>
