<svg width="60" height="60" viewBox="0 0 60 60" fill="none" xmlns="http://www.w3.org/2000/svg">
<g id="icon02" clip-path="url(#clip0_330_171)">
<path id="Vector 10" d="M8.72379 23.6797C7.89292 24.5106 7.47759 26.1723 7.47759 28.6649C-2.49278 34.8964 -0.0482253 53.7552 12.4629 57.3298C21.1869 59.8224 42.9388 59.2187 48.6055 57.3298C59.8222 53.5909 62.3148 34.8964 52.3444 28.6649C52.3444 26.1723 52.3444 24.926 51.0981 23.6797" stroke="white" stroke-width="1.99408" stroke-linecap="round"/>
<g id="Union">
<mask id="path-2-outside-1_330_171" maskUnits="userSpaceOnUse" x="-0.507385" y="-0.507446" width="61" height="26" fill="black">
<rect fill="white" x="-0.507385" y="-0.507446" width="61" height="26"/>
<path fill-rule="evenodd" clip-rule="evenodd" d="M42.3673 15.4387C42.372 15.2819 42.3742 15.1209 42.3742 14.9556C42.3742 7.47775 36.7943 2.49255 29.9112 2.49255C23.0281 2.49255 17.4482 7.47775 17.4482 14.9556C17.4482 15.1209 17.4505 15.2819 17.4551 15.4387C13.9056 17.4881 9.57912 14.8048 7.48373 12.7781C4.16986 11.4826 2.49261 14.4768 2.49261 16.3987C2.49261 19.7316 7.52046 22.4334 13.7226 22.4334C17.0476 22.4334 25.013 21.9077 27.4482 21.2264C28.375 20.9671 29.2062 20.7239 29.9112 20.4859C30.6162 20.7239 31.4475 20.9671 32.3742 21.2264C34.8095 21.9077 42.7748 22.4334 46.0998 22.4334C52.302 22.4334 57.3298 19.7316 57.3298 16.3987C57.3298 14.4768 55.6526 11.4826 52.3387 12.7781C50.2433 14.8048 45.9169 17.4881 42.3673 15.4387Z"/>
</mask>
<path d="M42.3673 15.4387L39.8758 15.3652L39.8319 16.8531L41.121 17.5974L42.3673 15.4387ZM17.4551 15.4387L18.7014 17.5974L19.9905 16.8531L19.9466 15.3652L17.4551 15.4387ZM7.48373 12.7781L9.21664 10.9864L8.85712 10.6387L8.39128 10.4566L7.48373 12.7781ZM27.4482 21.2264L26.7766 18.826L27.4482 21.2264ZM29.9112 20.4859L30.7086 18.1242L29.9112 17.855L29.1139 18.1242L29.9112 20.4859ZM32.3742 21.2264L33.0458 18.826L32.3742 21.2264ZM52.3387 12.7781L51.4311 10.4566L50.9653 10.6387L50.6058 10.9864L52.3387 12.7781ZM44.8588 15.5123C44.8643 15.3291 44.8668 15.1434 44.8668 14.9556H39.8816C39.8816 15.0984 39.8797 15.2348 39.8758 15.3652L44.8588 15.5123ZM44.8668 14.9556C44.8668 6.02305 38.0916 -4.62532e-05 29.9112 -4.62532e-05V4.98515C35.4971 4.98515 39.8816 8.93246 39.8816 14.9556H44.8668ZM29.9112 -4.62532e-05C21.7309 -4.62532e-05 14.9556 6.02305 14.9556 14.9556H19.9408C19.9408 8.93246 24.3253 4.98515 29.9112 4.98515V-4.62532e-05ZM14.9556 14.9556C14.9556 15.1434 14.9582 15.3291 14.9636 15.5123L19.9466 15.3652C19.9428 15.2348 19.9408 15.0984 19.9408 14.9556H14.9556ZM16.2088 13.2801C15.3052 13.8018 14.1759 13.8175 12.7968 13.3021C11.4066 12.7825 10.0839 11.8252 9.21664 10.9864L5.75082 14.5698C6.97896 15.7576 8.86716 17.1554 11.0514 17.9718C13.2468 18.7923 16.0555 19.125 18.7014 17.5974L16.2088 13.2801ZM8.39128 10.4566C7.18289 9.98419 5.96523 9.84593 4.80228 10.0858C3.64286 10.325 2.70178 10.9062 1.99005 11.6123C0.635944 12.9555 1.4782e-05 14.8452 1.4782e-05 16.3987H4.98521C4.98521 16.2594 5.02028 16.021 5.12568 15.7534C5.22956 15.4896 5.36772 15.2836 5.50089 15.1515C5.6227 15.0307 5.72228 14.9862 5.80937 14.9682C5.89294 14.951 6.12764 14.9243 6.57618 15.0996L8.39128 10.4566ZM1.4782e-05 16.3987C1.4782e-05 19.4241 2.24326 21.5941 4.60193 22.8615C7.0633 24.1842 10.2924 24.926 13.7226 24.926V19.9408C10.9507 19.9408 8.56478 19.3316 6.96168 18.4702C5.25589 17.5536 4.98521 16.7062 4.98521 16.3987H1.4782e-05ZM13.7226 24.926C15.4752 24.926 18.3692 24.7896 21.1175 24.5701C23.7807 24.3574 26.6286 24.044 28.1198 23.6269L26.7766 18.826C25.8325 19.0901 23.4802 19.3803 20.7206 19.6007C18.0462 19.8143 15.295 19.9408 13.7226 19.9408V24.926ZM28.1198 23.6269C29.0551 23.3652 29.9385 23.1075 30.7086 22.8475L29.1139 18.1242C28.4739 18.3403 27.6948 18.5691 26.7766 18.826L28.1198 23.6269ZM29.1139 22.8475C29.8839 23.1075 30.7673 23.3652 31.7027 23.6269L33.0458 18.826C32.1276 18.5691 31.3485 18.3403 30.7086 18.1242L29.1139 22.8475ZM31.7027 23.6269C33.1938 24.044 36.0417 24.3574 38.7049 24.5701C41.4533 24.7896 44.3473 24.926 46.0998 24.926V19.9408C44.5274 19.9408 41.7762 19.8143 39.1018 19.6007C36.3423 19.3803 33.9899 19.0901 33.0458 18.826L31.7027 23.6269ZM46.0998 24.926C49.53 24.926 52.7591 24.1842 55.2205 22.8615C57.5792 21.5941 59.8224 19.4241 59.8224 16.3987H54.8372C54.8372 16.7062 54.5665 17.5536 52.8607 18.4702C51.2577 19.3316 48.8717 19.9408 46.0998 19.9408V24.926ZM59.8224 16.3987C59.8224 14.8452 59.1865 12.9555 57.8324 11.6123C57.1206 10.9062 56.1796 10.325 55.0201 10.0858C53.8572 9.84593 52.6395 9.98419 51.4311 10.4566L53.2462 15.0996C53.6948 14.9243 53.9295 14.951 54.0131 14.9682C54.1001 14.9862 54.1997 15.0307 54.3215 15.1515C54.4547 15.2836 54.5929 15.4896 54.6967 15.7534C54.8022 16.021 54.8372 16.2594 54.8372 16.3987H59.8224ZM50.6058 10.9864C49.7385 11.8252 48.4158 12.7825 47.0256 13.3021C45.6466 13.8175 44.5173 13.8018 43.6137 13.2801L41.121 17.5974C43.7669 19.125 46.5756 18.7923 48.771 17.9718C50.9553 17.1554 52.8435 15.7576 54.0716 14.5698L50.6058 10.9864Z" fill="white" mask="url(#path-2-outside-1_330_171)"/>
</g>
<path id="Vector 8" d="M7.89931 11.2167C7.06844 8.30862 6.90227 2.49255 12.8845 2.49255C15.8756 2.49255 18.2851 4.98515 19.1159 6.23145" stroke="white" stroke-width="1.99408" stroke-linecap="round"/>
<path id="Vector 9" d="M53.5905 11.2167C54.4214 8.30862 54.5876 2.49255 48.6053 2.49255C45.6142 2.49255 43.2047 4.98515 42.3739 6.23145" stroke="white" stroke-width="1.99408" stroke-linecap="round"/>
<path id="Ellipse 16" d="M24.0698 36.7661C24.0698 37.7985 23.5118 38.6355 22.8235 38.6355C22.1352 38.6355 21.5772 37.7985 21.5772 36.7661C21.5772 35.7336 22.1352 34.8966 22.8235 34.8966C23.5118 34.8966 24.0698 35.7336 24.0698 36.7661Z" fill="white"/>
<path id="Ellipse 17" d="M38.2245 36.7658C38.2245 37.7983 37.6665 38.6353 36.9782 38.6353C36.2899 38.6353 35.7319 37.7983 35.7319 36.7658C35.7319 35.7333 36.2899 34.8964 36.9782 34.8964C37.6665 34.8964 38.2245 35.7333 38.2245 36.7658Z" fill="white"/>
<path id="Union_2" fill-rule="evenodd" clip-rule="evenodd" d="M31.1573 38.6353C31.1573 39.2714 30.6808 39.7962 30.0653 39.8722L30.6161 40.4229C31.1552 40.962 31.9109 41.4371 32.5676 41.5466C32.8745 41.5977 33.1198 41.5635 33.3209 41.463C33.5193 41.3638 33.769 41.153 34.0045 40.682C34.2507 40.1895 34.8496 39.9899 35.3421 40.2362C35.8347 40.4824 36.0343 41.0813 35.788 41.5738C35.4003 42.3492 34.8711 42.9173 34.2127 43.2465C33.9437 43.381 33.669 43.4677 33.3953 43.516C33.4148 43.699 33.3839 43.8896 33.2954 44.0664L32.0491 46.559L31.7736 47.1102H31.1573H28.6647H28.0485L27.773 46.559L26.5267 44.0664C26.4382 43.8896 26.4073 43.699 26.4268 43.516C26.1531 43.4677 25.8784 43.381 25.6094 43.2465C24.951 42.9173 24.4218 42.3492 24.0341 41.5738C23.7878 41.0813 23.9874 40.4824 24.48 40.2362C24.9725 39.9899 25.5714 40.1895 25.8176 40.682C26.0531 41.153 26.3028 41.3638 26.5012 41.463C26.7023 41.5635 26.9476 41.5977 27.2545 41.5466C27.9112 41.4371 28.6669 40.962 29.206 40.4229L29.7568 39.8722C29.1413 39.7962 28.6647 39.2714 28.6647 38.6353C28.6647 37.947 29.2227 37.389 29.911 37.389C30.5994 37.389 31.1573 37.947 31.1573 38.6353ZM28.3735 43.3011L29.281 45.1161H30.5411L31.4486 43.3011C30.8839 43.0936 30.3594 42.7834 29.911 42.4449C29.4627 42.7834 28.9381 43.0936 28.3735 43.3011Z" fill="white"/>
<path id="Ellipse 19" d="M24.4479 32.6904C24.2218 33.3405 23.248 33.5926 22.2728 33.2535C21.2977 32.9144 20.6904 32.1124 20.9165 31.4623C21.1426 30.8122 22.1164 30.5601 23.0916 30.8992C24.0667 31.2383 24.674 32.0403 24.4479 32.6904Z" fill="white"/>
<path id="Ellipse 20" d="M35.4303 32.5584C35.6399 33.214 36.6071 33.4907 37.5905 33.1763C38.574 32.8619 39.2013 32.0755 38.9917 31.4199C38.7821 30.7643 37.8149 30.4877 36.8315 30.802C35.8481 31.1164 35.2208 31.9028 35.4303 32.5584Z" fill="white"/>
</g>
<defs>
<clipPath id="clip0_330_171">
<rect width="60" height="60" fill="white"/>
</clipPath>
</defs>
</svg>
