<svg width="15" height="11" viewBox="0 0 15 11" fill="none" xmlns="http://www.w3.org/2000/svg">
<path d="M4.48286e-08 5.50375C4.30442e-08 5.72253 0.0560265 5.93235 0.155754 6.08705C0.255482 6.24175 0.390742 6.32866 0.531778 6.32866L13.076 6.32866L10.7454 9.56344C10.6412 9.70968 10.5786 9.91394 10.5712 10.1316C10.5638 10.3492 10.6122 10.5626 10.7059 10.725C10.7995 10.8875 10.9308 10.9858 11.0711 10.9986C11.2114 11.0113 11.3492 10.9375 11.4544 10.7931L14.8224 6.11858C14.8782 6.0412 14.9229 5.94638 14.9536 5.84033C14.9842 5.73428 15 5.61939 15 5.5032C15 5.387 14.9842 5.27211 14.9536 5.16606C14.9229 5.06001 14.8782 4.96519 14.8224 4.88781L11.4544 0.213275C11.4025 0.140315 11.3417 0.0840139 11.2757 0.0476093C11.2096 0.0112047 11.1396 -0.00458438 11.0696 0.00114816C10.9996 0.00688069 10.931 0.0340232 10.8678 0.0810155C10.8046 0.128007 10.748 0.193919 10.7013 0.274962C10.6545 0.356007 10.6186 0.450582 10.5955 0.55325C10.5724 0.655918 10.5626 0.764651 10.5667 0.873197C10.5708 0.981745 10.5887 1.08796 10.6194 1.18574C10.6501 1.28352 10.6929 1.37093 10.7454 1.44295L13.076 4.67883L0.531778 4.67883C0.390742 4.67883 0.255482 4.76574 0.155754 4.92044C0.0560265 5.07514 4.6613e-08 5.28496 4.48286e-08 5.50375Z" fill="white"/>
</svg>
