<svg width="60" height="60" viewBox="0 0 60 60" fill="none" xmlns="http://www.w3.org/2000/svg">
<g id="fluent:arrow-up-12-filled">
<path id="Vector" d="M7.50037 30C7.50037 30.9946 7.89546 31.9484 8.59872 32.6517C9.30198 33.3549 10.2558 33.75 11.2504 33.75L40.9504 33.75L31.1004 43.6C30.438 44.3109 30.0774 45.2511 30.0945 46.2226C30.1116 47.1942 30.5052 48.1211 31.1923 48.8081C31.8793 49.4952 32.8062 49.8888 33.7778 49.9059C34.7493 49.9231 35.6895 49.5624 36.4004 48.9L52.6504 32.65C53.3526 31.9469 53.7471 30.9938 53.7471 30C53.7471 29.0063 53.3526 28.0532 52.6504 27.35L36.4004 11.1C36.0571 10.7316 35.6431 10.4361 35.1831 10.2311C34.7231 10.0262 34.2265 9.91596 33.723 9.90708C33.2195 9.89819 32.7193 9.99082 32.2524 10.1794C31.7854 10.368 31.3613 10.6487 31.0052 11.0048C30.6491 11.3609 30.3684 11.7851 30.1798 12.252C29.9912 12.719 29.8985 13.2191 29.9074 13.7226C29.9163 14.2262 30.0265 14.7227 30.2315 15.1827C30.4364 15.6427 30.7319 16.0567 31.1004 16.4L40.9504 26.25L11.2504 26.25C9.18037 26.25 7.50037 27.93 7.50037 30Z" fill="black"/>
</g>
</svg>
