<svg width="80" height="80" viewBox="0 0 80 80" fill="none" xmlns="http://www.w3.org/2000/svg">
<g id="mingcute:left-fill" clip-path="url(#clip0_622_571)">
<g id="Group">
<path id="Vector" fill-rule="evenodd" clip-rule="evenodd" d="M26.4671 43.5332C25.5308 42.5957 25.0049 41.3249 25.0049 39.9999C25.0049 38.6749 25.5308 37.4041 26.4671 36.4666L45.3205 17.6066C46.2585 16.669 47.5305 16.1425 48.8567 16.1428C49.5133 16.143 50.1635 16.2725 50.7701 16.5239C51.3768 16.7753 51.9279 17.1438 52.3921 17.6082C52.8564 18.0727 53.2246 18.624 53.4757 19.2308C53.7269 19.8375 53.8561 20.4878 53.8559 21.1444C53.8558 21.8011 53.7263 22.4513 53.4748 23.0579C53.2234 23.6645 52.8549 24.2157 52.3905 24.6799L37.0738 39.9999L52.3938 55.3199C52.8716 55.7809 53.2527 56.3325 53.5151 56.9424C53.7774 57.5523 53.9156 58.2083 53.9217 58.8722C53.9278 59.5361 53.8016 60.1945 53.5505 60.8091C53.2994 61.4237 52.9284 61.9822 52.4591 62.4518C51.9899 62.9215 51.4318 63.293 50.8174 63.5447C50.2031 63.7964 49.5448 63.9233 48.8809 63.9178C48.217 63.9123 47.5608 63.7747 46.9507 63.513C46.3405 63.2512 45.7886 62.8706 45.3271 62.3932L26.4605 43.5332H26.4671Z" fill="black"/>
</g>
</g>
<defs>
<clipPath id="clip0_622_571">
<rect width="80" height="80" fill="white"/>
</clipPath>
</defs>
</svg>
