<svg width="12" height="21" viewBox="0 0 12 21" fill="none" xmlns="http://www.w3.org/2000/svg">
<path id="Vector" fill-rule="evenodd" clip-rule="evenodd" d="M10.906 11.531C11.1794 11.2575 11.333 10.8867 11.333 10.5C11.333 10.1133 11.1794 9.74241 10.906 9.46893L2.65624 1.21914C2.52171 1.07985 2.36079 0.968753 2.18287 0.892323C2.00495 0.815893 1.81358 0.775663 1.61995 0.773981C1.42631 0.772298 1.23428 0.809197 1.05505 0.882523C0.875832 0.955849 0.713005 1.06414 0.576077 1.20106C0.439151 1.33799 0.330865 1.50081 0.257539 1.68004C0.184213 1.85926 0.147315 2.05129 0.148997 2.24493C0.15068 2.43857 0.19091 2.62993 0.26734 2.80785C0.343769 2.98577 0.454868 3.14669 0.594153 3.28122L7.8129 10.5L0.594153 17.7187C0.328506 17.9938 0.181515 18.3621 0.184837 18.7445C0.18816 19.1269 0.341531 19.4927 0.611918 19.763C0.882305 20.0334 1.24807 20.1868 1.63044 20.1901C2.01281 20.1934 2.38119 20.0464 2.65624 19.7808L10.906 11.531Z" fill="black"/>
</svg>
