<svg width="13" height="17" viewBox="0 0 13 17" fill="none" xmlns="http://www.w3.org/2000/svg">
<path id="Vector" d="M7.23478 10.5739V15.3043C7.23478 15.5257 7.14683 15.7381 6.99028 15.8946C6.83373 16.0512 6.6214 16.1391 6.4 16.1391C6.1786 16.1391 5.96627 16.0512 5.80972 15.8946C5.65317 15.7381 5.56522 15.5257 5.56522 15.3043V10.5739C5.56522 10.3525 5.65317 10.1402 5.80972 9.98363C5.96627 9.82708 6.1786 9.73913 6.4 9.73913C6.6214 9.73913 6.83373 9.82708 6.99028 9.98363C7.14683 10.1402 7.23478 10.3525 7.23478 10.5739ZM11.9652 5.56522H8.41739L10.8883 3.09496C11.0452 2.93813 11.1333 2.72543 11.1333 2.50365C11.1333 2.28187 11.0452 2.06917 10.8883 1.91235C10.7315 1.75552 10.5188 1.66742 10.297 1.66742C10.0753 1.66742 9.86256 1.75552 9.70574 1.91235L7.23478 4.38261V0.834783C7.23478 0.613385 7.14683 0.401054 6.99028 0.244502C6.83373 0.0879501 6.6214 0 6.4 0C6.1786 0 5.96627 0.0879501 5.80972 0.244502C5.65317 0.401054 5.56522 0.613385 5.56522 0.834783V4.38261L3.09496 1.91374C2.93813 1.75692 2.72543 1.66881 2.50365 1.66881C2.28187 1.66881 2.06917 1.75692 1.91235 1.91374C1.75552 2.07056 1.66742 2.28326 1.66742 2.50504C1.66742 2.72683 1.75552 2.93952 1.91235 3.09635L4.38261 5.56522H0.834783C0.613385 5.56522 0.401054 5.65317 0.244502 5.80972C0.08795 5.96627 0 6.1786 0 6.4C0 6.6214 0.08795 6.83373 0.244502 6.99028C0.401054 7.14683 0.613385 7.23478 0.834783 7.23478H4.38261L1.91374 9.70504C1.83609 9.78269 1.77449 9.87488 1.73247 9.97634C1.69044 10.0778 1.66881 10.1865 1.66881 10.2963C1.66881 10.5181 1.75692 10.7308 1.91374 10.8877C2.07056 11.0445 2.28326 11.1326 2.50504 11.1326C2.72683 11.1326 2.93952 11.0445 3.09635 10.8877L6.4 7.58261L9.70504 10.8883C9.86187 11.0452 10.0746 11.1333 10.2963 11.1333C10.5181 11.1333 10.7308 11.0452 10.8877 10.8883C11.0445 10.7315 11.1326 10.5188 11.1326 10.297C11.1326 10.0753 11.0445 9.86256 10.8877 9.70574L8.41739 7.23478H11.9652C12.1866 7.23478 12.3989 7.14683 12.5555 6.99028C12.7121 6.83373 12.8 6.6214 12.8 6.4C12.8 6.1786 12.7121 5.96627 12.5555 5.80972C12.3989 5.65317 12.1866 5.56522 11.9652 5.56522Z" fill="black"/>
</svg>
