<svg width="80" height="80" viewBox="0 0 80 80" fill="none" xmlns="http://www.w3.org/2000/svg">
<rect width="80" height="80" fill="#F5F5F5"/>
<g id="groves_page" clip-path="url(#clip0_0_1)">
<rect width="1920" height="4374" transform="translate(-1633 -1378)" fill="white"/>
<g id="Frame 131">
<g id="pagination01">
<g id="mingcute:left-fill" clip-path="url(#clip1_0_1)">
<g id="Group">
<path id="Vector" fill-rule="evenodd" clip-rule="evenodd" d="M53.5329 43.5332C54.4692 42.5957 54.9951 41.3249 54.9951 39.9999C54.9951 38.6749 54.4692 37.4041 53.5329 36.4666L34.6795 17.6066C33.7415 16.669 32.4695 16.1425 31.1433 16.1428C30.4867 16.143 29.8365 16.2725 29.2299 16.5239C28.6232 16.7753 28.0721 17.1438 27.6079 17.6082C27.1436 18.0727 26.7754 18.624 26.5243 19.2308C26.2731 19.8375 26.1439 20.4878 26.1441 21.1444C26.1442 21.8011 26.2737 22.4513 26.5252 23.0579C26.7766 23.6645 27.1451 24.2157 27.6095 24.6799L42.9262 39.9999L27.6062 55.3199C27.1284 55.7809 26.7473 56.3325 26.4849 56.9424C26.2226 57.5523 26.0844 58.2083 26.0783 58.8722C26.0722 59.5361 26.1984 60.1945 26.4495 60.8091C26.7006 61.4237 27.0716 61.9822 27.5409 62.4518C28.0101 62.9215 28.5682 63.293 29.1826 63.5447C29.7969 63.7964 30.4552 63.9233 31.1191 63.9178C31.783 63.9123 32.4392 63.7747 33.0493 63.513C33.6595 63.2512 34.2114 62.8706 34.6729 62.3932L53.5395 43.5332H53.5329Z" fill="black"/>
</g>
</g>
</g>
</g>
</g>
<defs>
<clipPath id="clip0_0_1">
<rect width="1920" height="4374" fill="white" transform="translate(-1633 -1378)"/>
</clipPath>
<clipPath id="clip1_0_1">
<rect width="80" height="80" fill="white" transform="matrix(-1 0 0 1 80 0)"/>
</clipPath>
</defs>
</svg>
