<?xml version="1.0" standalone="no"?>
<!DOCTYPE svg PUBLIC "-//W3C//DTD SVG 20010904//EN"
 "http://www.w3.org/TR/2001/REC-SVG-20010904/DTD/svg10.dtd">
<svg version="1.0" xmlns="http://www.w3.org/2000/svg"
 width="48.000000pt" height="48.000000pt" viewBox="0 0 48.000000 48.000000"
 preserveAspectRatio="xMidYMid meet">

<g transform="translate(0.000000,48.000000) scale(0.100000,-0.100000)"
fill="#000000" stroke="none">
<path d="M202 419 c-52 -26 -78 -62 -93 -125 -15 -66 3 -120 51 -152 41 -27
49 -42 23 -42 -28 0 -71 49 -89 103 -9 26 -20 47 -25 47 -5 0 -9 -3 -9 -7 0
-5 -14 -16 -30 -25 -34 -19 -37 -30 -14 -52 8 -9 13 -20 10 -25 -3 -5 1 -14 9
-21 8 -7 15 -18 15 -25 0 -32 35 -44 139 -46 112 -2 124 3 137 54 6 25 1 34
-42 73 -39 37 -46 48 -37 62 5 9 23 17 38 17 23 0 30 -6 36 -28 11 -43 28 -57
66 -57 68 0 109 82 78 156 -21 51 -42 73 -90 95 -54 25 -120 24 -173 -2z
m-142 -219 c0 -5 -2 -10 -4 -10 -3 0 -8 5 -11 10 -3 6 -1 10 4 10 6 0 11 -4
11 -10z"/>
<path d="M25 70 c-8 -14 9 -34 23 -29 7 3 6 11 -3 22 -9 13 -15 15 -20 7z"/>
</g>
</svg>
